<?xml version="1.0" encoding="utf-8"?><svg version="1.1" xmlns="http://www.w3.org/2000/svg" xmlns:xlink="http://www.w3.org/1999/xlink" viewBox="0 0 100 100" style="enable-background:new 0 0 100 100;" xml:space="preserve"><path fill="#070EE1" d="M4,55.8c1.2-2.7,5.5-4.5,9.3-6.2c5.3-2.3,10.7-4,10.9-5.9C24.6,40.9,12,36.4,14,29.1c1.6-6.1,4.9-11.1,9-15.4 c2.1-2.2,4.4-4.1,6.8-5.8c-3.5,1.3-11.9,10-14.9,14.7l0,0c-2.8,4.5-5.4,5.9-5.4,8.8c0,2.4,2.2,3.4,6.4,6.1c4.2,2.7,8.1,3.9,8.1,6.4 c0,1.5-10,3.9-14.9,5.9C3.4,52,0,54,0,56.5C-0.1,62,8.7,65.1,11,70c0,0.1,0.1,0.2,0.1,0.2c-0.1-0.3-0.2-0.6-0.3-0.9 C9.1,63.4,1.9,60.5,4,55.8z"/><g fill="#00FFFF"><path d="M35.9,35.5c3.3,3.5,9.3,6.6,6.3,10.5c-1.7,2.3-8.8,5.2-14,7.7c-2.8,1.3-5.4,2.3-5.6,3.5c1-2.1,7-3.8,14.3-6.6 c6.9-2.6,11.2-3.3,11-6.3c-0.3-4.2-12.8-7.5-12.8-13.8l0,0c0-2.1,1.1-4.5,1.9-6.2c-1.5,1.7-2.3,3.2-2.7,4.2 C33.5,31.8,34.3,33.9,35.9,35.5z"/><path d="M30.3,65.1c0.8,2.1,1.8,3.9,2.8,5.6c-0.7-2.4,0.8-6.3-2-7.9c-2.2-1.2-4.8-1.9-6.6-2.8 C26.5,61.4,29.4,62.7,30.3,65.1z"/></g><path fill="#FFFFFF" d="M68.5,79.5L68.5,79.5c-4,2.2-8.8,3.2-14.2,3.2c-3,0-6-0.5-8.8-1.6c-2.8-1-5.5-2.7-7.9-4.9 c-1-1-2.8-2.9-4.5-5.6c-1-1.6-2-3.5-2.8-5.6c-0.9-2.4-3.8-3.7-5.8-5.1c-1.1-0.8-2-1.6-2-2.7c0,0,0-0.1,0-0.1 c0.2-1.2,2.8-2.2,5.6-3.5c5.2-2.5,12.3-5.4,14-7.7c2.9-3.9-3.1-7-6.3-10.5c-1.5-1.7-2.4-3.7-1.4-6.9c0.3-1,1.2-2.6,2.7-4.2 c3.3-3.8,9.6-8.2,19-8.2c3,0,6,0.6,8.8,1.7c2.8,1.1,5.4,2.6,7.5,4.6c2.2,2,3.9,4.5,5.3,7.4c1.1,2.4,1.8,5.1,2.1,7.9H100 c-0.3-1.6-0.7-3.2-1.2-4.8c-2-6.7-4.9-12.5-8.8-17.4C86.1,10.8,81.3,7,75.5,4.2C69.8,1.4,63.3,0,56.1,0c-6.6,0-12.8,1.2-18.4,3.6 c-2.8,1.2-5.4,2.6-7.8,4.3c-2.5,1.7-4.7,3.6-6.8,5.8c-4.1,4.3-7.4,9.4-9,15.4c-2,7.4,10.6,11.8,10.3,14.6 c-0.2,1.9-5.6,3.6-10.9,5.9c-3.8,1.7-8.1,3.6-9.3,6.2c-2.1,4.7,5.1,7.6,6.8,13.5c0.1,0.3,0.2,0.6,0.3,0.9c1.9,5.7,5.1,10.7,9,15 c4.1,4.5,9,8.1,14.9,10.8c5.9,2.7,12.6,4,20.2,4c6.1,0,11.5-0.9,16.2-2.6c4.8-1.7,8.9-4,12.5-6.9c3.5-2.9,6.5-6.1,8.8-9.8 c2.3-3.7,4-7.4,5.1-11.1H77.3C75.4,74,72.5,77.3,68.5,79.5z"/></svg>